<?xml version="1.0" encoding="UTF-8"?>
<svg xmlns="http://www.w3.org/2000/svg" viewBox="0 0 512 512" role="img" aria-label="Arca">
<g transform="translate(76 55) scale(0.735)">
<g fill="#6CABDD" fill-rule="evenodd">
<path d="M 128.00,324.00 125.00,322.00 107.00,316.00 89.00,307.00 87.00,307.00 83.00,304.00 67.00,296.00 54.00,287.00 50.00,286.00 13.00,360.00 11.00,362.00 11.00,364.00 8.00,370.00 6.00,372.00 0.00,384.00 0.00,389.00 5.00,393.00 92.00,393.00 97.00,390.00 103.00,379.00 103.00,377.00 128.00,328.00 Z"/>
<path d="M 362.00,325.00 362.00,327.00 393.00,389.00 399.00,393.00 486.00,393.00 491.00,389.00 491.00,384.00 487.00,378.00 442.00,287.00 440.00,285.00 423.00,296.00 416.00,299.00 414.00,301.00 392.00,312.00 390.00,312.00 385.00,315.00 383.00,315.00 370.00,321.00 365.00,322.00 Z"/>
<path d="M 4.00,181.00 5.00,182.00 6.00,194.00 7.00,195.00 8.00,202.00 12.00,214.00 19.00,229.00 23.00,234.00 26.00,240.00 33.00,249.00 51.00,267.00 61.00,275.00 81.00,288.00 102.00,299.00 104.00,299.00 119.00,306.00 146.00,315.00 149.00,315.00 150.00,316.00 153.00,316.00 162.00,319.00 166.00,319.00 167.00,320.00 171.00,320.00 172.00,321.00 176.00,321.00 182.00,323.00 187.00,323.00 188.00,324.00 193.00,324.00 194.00,325.00 208.00,326.00 209.00,327.00 235.00,328.00 236.00,329.00 261.00,329.00 262.00,328.00 275.00,328.00 276.00,327.00 286.00,327.00 287.00,326.00 300.00,325.00 306.00,323.00 311.00,323.00 312.00,322.00 326.00,320.00 327.00,319.00 338.00,317.00 342.00,315.00 345.00,315.00 352.00,312.00 355.00,312.00 364.00,309.00 367.00,307.00 369.00,307.00 372.00,305.00 374.00,305.00 377.00,303.00 379.00,303.00 386.00,299.00 388.00,299.00 405.00,290.00 424.00,278.00 439.00,266.00 456.00,249.00 469.00,230.00 475.00,218.00 481.00,200.00 482.00,192.00 483.00,191.00 483.00,185.00 484.00,184.00 484.00,173.00 485.00,172.00 484.00,170.00 483.00,170.00 462.00,184.00 439.00,195.00 437.00,195.00 426.00,200.00 402.00,208.00 399.00,208.00 381.00,214.00 378.00,214.00 377.00,215.00 374.00,215.00 365.00,218.00 356.00,219.00 351.00,221.00 346.00,221.00 345.00,222.00 336.00,223.00 335.00,224.00 329.00,224.00 328.00,225.00 316.00,226.00 315.00,227.00 308.00,227.00 307.00,228.00 287.00,229.00 286.00,230.00 273.00,230.00 272.00,231.00 219.00,231.00 218.00,230.00 194.00,229.00 193.00,228.00 185.00,228.00 184.00,227.00 177.00,227.00 176.00,226.00 156.00,224.00 155.00,223.00 151.00,223.00 150.00,222.00 146.00,222.00 145.00,221.00 141.00,221.00 140.00,220.00 136.00,220.00 135.00,219.00 131.00,219.00 126.00,217.00 122.00,217.00 121.00,216.00 110.00,214.00 106.00,212.00 92.00,209.00 65.00,200.00 28.00,184.00 26.00,182.00 14.00,176.00 6.00,170.00 4.00,170.00 Z"/>
<path d="M 94.00,187.00 94.00,190.00 97.00,192.00 107.00,194.00 111.00,196.00 114.00,196.00 126.00,200.00 130.00,200.00 135.00,202.00 139.00,202.00 140.00,203.00 144.00,203.00 150.00,205.00 155.00,205.00 161.00,207.00 166.00,207.00 167.00,208.00 188.00,210.00 241.00,104.00 243.00,102.00 245.00,102.00 246.00,104.00 249.00,103.00 255.00,112.00 258.00,120.00 260.00,122.00 303.00,208.00 305.00,210.00 325.00,208.00 326.00,207.00 331.00,207.00 332.00,206.00 348.00,204.00 353.00,202.00 358.00,202.00 367.00,199.00 371.00,199.00 372.00,198.00 379.00,197.00 383.00,195.00 386.00,195.00 398.00,191.00 398.00,188.00 395.00,183.00 395.00,181.00 380.00,152.00 380.00,150.00 353.00,96.00 353.00,94.00 337.00,63.00 337.00,61.00 325.00,38.00 325.00,36.00 322.00,32.00 322.00,30.00 312.00,11.00 310.00,5.00 302.00,0.00 191.00,0.00 186.00,3.00 Z"/>
</g></g></svg>